<?xml version="1.0" encoding="UTF-8" standalone="no"?>
<!-- Generator: Adobe Illustrator 17.0.0, SVG Export Plug-In . SVG Version: 6.00 Build 0)  -->

<svg
   xmlns:dc="http://purl.org/dc/elements/1.1/"
   xmlns:cc="http://creativecommons.org/ns#"
   xmlns:rdf="http://www.w3.org/1999/02/22-rdf-syntax-ns#"
   xmlns:svg="http://www.w3.org/2000/svg"
   xmlns="http://www.w3.org/2000/svg"
   xmlns:sodipodi="http://sodipodi.sourceforge.net/DTD/sodipodi-0.dtd"
   xmlns:inkscape="http://www.inkscape.org/namespaces/inkscape"
   version="1.1"
   id="Calque_1"
   x="0px"
   y="0px"
   width="500px"
   height="500px"
   viewBox="0 0 500 500"
   enable-background="new 0 0 500 500"
   xml:space="preserve"
   inkscape:version="0.92.2 5c3e80d, 2017-08-06"
   sodipodi:docname="arel.svg"
   inkscape:export-filename="/home/cp/dev/arelv5/src/main/webapp/assets/js/event/arel.png"
   inkscape:export-xdpi="106.44849"
   inkscape:export-ydpi="106.44849"><defs
     id="defs21" /><sodipodi:namedview
     pagecolor="#ffffff"
     bordercolor="#666666"
     borderopacity="1"
     objecttolerance="10"
     gridtolerance="10"
     guidetolerance="10"
     inkscape:pageopacity="0"
     inkscape:pageshadow="2"
     inkscape:window-width="1920"
     inkscape:window-height="1020"
     id="namedview19"
     showgrid="false"
     inkscape:zoom="1.425"
     inkscape:cx="52.995537"
     inkscape:cy="236.14477"
     inkscape:window-x="0"
     inkscape:window-y="30"
     inkscape:window-maximized="1"
     inkscape:current-layer="Calque_1" /><g
     id="g3"
     transform="matrix(2.1549222,0,0,2.1549222,-290.26838,-298.96824)"
     style="fill:#cecece;fill-opacity:0.37647059"><g
       id="g5"
       style="fill:#cecece;fill-opacity:0.37647059"><path
         d="m 248.908,175.052 c 0,8.375 0.723,16.239 -0.129,23.929 -3.175,28.672 -13.566,54.169 -34.751,74.502 -6.385,6.128 -13.407,11.458 -20.995,16.06 -4.076,2.472 -7.117,1.765 -9.822,-2.049 -3.769,-5.315 -7.544,-10.608 -9.219,-17.038 -1.199,-4.604 -0.057,-7.712 4.644,-10.091 34.932,-17.68 59.056,-44.376 68.388,-83.171 0.113,-0.469 0.366,-0.908 0.592,-1.342 0.061,-0.119 0.258,-0.17 1.292,-0.8 z"
         id="path7"
         inkscape:connector-curvature="0"
         style="fill:#cecece;fill-opacity:0.37647059" /><path
         d="m 321.96,283.899 c -11.653,-5.132 -21.952,-12.412 -31.352,-20.904 -20.982,-18.957 -34.364,-42.134 -38.226,-70.44 -0.747,-5.471 -0.572,-10.96 -0.635,-16.449 -0.031,-2.725 1.16,-4.505 3.878,-4.969 7.432,-1.267 14.873,-1.855 22.264,0.289 4.264,1.237 6.023,3.794 5.737,8.504 -2.355,38.849 8.56,72.946 36.704,100.707 0.808,0.797 1.991,1.216 2.999,1.811 -0.456,0.483 -0.912,0.967 -1.369,1.451 z"
         id="path9"
         inkscape:connector-curvature="0"
         style="fill:#cecece;fill-opacity:0.37647059" /><path
         d="m 192.092,293.085 c 7.989,-5.997 16.531,-10.317 25.476,-13.857 34.23,-13.547 67.828,-13.12 100.574,4.777 5.411,2.957 5.929,4.41 3.359,9.951 -2.448,5.279 -4.815,10.632 -8.87,14.961 -4.518,4.822 -7.047,5.149 -12.499,1.491 -22.174,-14.879 -46.564,-22.607 -73.301,-22.353 -10.329,0.098 -20.545,1.582 -30.483,4.623 -1.194,0.366 -2.368,1.289 -4.256,0.407 z"
         id="path11"
         inkscape:connector-curvature="0"
         style="fill:#cecece;fill-opacity:0.37647059" /><path
         d="m 200.241,235.199 c -10.089,-0.071 -18.145,-8.072 -18.207,-18.081 -0.063,-10.15 8.207,-18.308 18.546,-18.294 10.348,0.014 18.395,8.048 18.437,18.407 0.04,10.026 -8.336,18.042 -18.776,17.968 z"
         id="path13"
         inkscape:connector-curvature="0"
         style="fill:#cecece;fill-opacity:0.37647059" /><path
         d="m 328.173,220.972 c 0.015,10.518 -7.805,18.302 -18.307,18.225 -10.252,-0.076 -17.934,-7.813 -17.972,-18.103 -0.038,-10.418 7.949,-18.367 18.358,-18.27 10.24,0.095 17.907,7.86 17.921,18.148 z"
         id="path15"
         inkscape:connector-curvature="0"
         style="fill:#cecece;fill-opacity:0.37647059" /><path
         d="m 251.97,295.814 c 10.437,-0.068 18.389,7.438 18.599,17.555 0.206,9.951 -8.379,18.723 -18.267,18.667 -9.954,-0.057 -18.265,-8.25 -18.301,-18.042 -0.039,-10.011 7.972,-18.115 17.969,-18.18 z"
         id="path17"
         inkscape:connector-curvature="0"
         style="fill:#cecece;fill-opacity:0.37647059" /></g></g><metadata
     id="metadata3342"><rdf:RDF><cc:Work
         rdf:about=""><dc:title /><dc:format>image/svg+xml</dc:format><dc:type
           rdf:resource="http://purl.org/dc/dcmitype/StillImage" /></cc:Work></rdf:RDF></metadata><path
     style="opacity:1;fill:#000000;fill-opacity:1;stroke:none;stroke-width:2.26713848;stroke-miterlimit:4;stroke-dasharray:none;stroke-opacity:1"
     d="m 112.68535,327.43616 c -4.26324,-1.69172 -6.90869,-4.65772 -15.012805,-16.83197 -8.500175,-12.7692 -13.640002,-24.9985 -13.777203,-32.78039 -0.14198,-8.05298 3.260219,-12.09007 15.232452,-18.07501 12.797576,-6.39755 32.545966,-18.76599 45.467246,-28.47618 41.44935,-31.14872 70.5796,-69.965 88.05202,-117.32996 2.59787,-7.04241 6.54827,-19.78795 8.22439,-26.535102 1.37427,-5.532052 2.3235,-7.592121 3.81046,-8.269625 0.68172,-0.310609 1.32454,-0.479686 1.4285,-0.375726 0.10395,0.103959 0.24085,10.532353 0.30422,23.174213 0.12595,25.12842 -0.0286,27.39974 -3.12256,45.8829 -7.40103,44.21366 -22.48445,80.99559 -46.47849,113.34092 -12.33253,16.62494 -29.80358,34.11072 -48.20116,48.24179 -7.00622,5.38144 -21.35231,14.90343 -25.29205,16.78721 -3.56199,1.70315 -8.13433,2.23925 -10.63502,1.24693 z"
     id="path4508"
     inkscape:connector-curvature="0" /><path
     style="opacity:1;fill:#000000;fill-opacity:1;stroke:none;stroke-width:2.26713848;stroke-miterlimit:4;stroke-dasharray:none;stroke-opacity:1"
     d="m 363.73637,373.90335 c -1.57349,-0.64697 -5.32254,-2.77631 -8.33121,-4.73186 -25.78619,-16.7603 -50.0403,-28.24225 -76.40088,-36.16839 -48.42547,-14.56063 -103.89418,-14.9157 -146.94633,-0.94064 -3.67807,1.19394 -5.11215,1.44616 -6.61597,1.16366 l -1.92,-0.36068 1.47022,-1.19911 c 0.80861,-0.65952 4.22685,-3.03849 7.5961,-5.28661 34.55593,-23.05737 85.03168,-40.05616 128.86415,-43.39775 8.54386,-0.65135 26.27808,-0.64325 35.03693,0.016 30.56953,2.30083 60.76783,10.86205 90.2008,25.57192 16.38956,8.19109 19.25472,10.7555 18.72519,16.75954 -0.30868,3.5 -1.42731,6.32334 -7.19667,18.16391 -5.60589,11.50506 -10.11465,18.30367 -16.15601,24.36114 -7.27925,7.29864 -11.72109,8.76473 -18.32632,6.04888 z"
     id="path4510"
     inkscape:connector-curvature="0" /><path
     style="opacity:1;fill:#000000;fill-opacity:1;stroke:none;stroke-width:2.26713848;stroke-miterlimit:4;stroke-dasharray:none;stroke-opacity:1"
     d="m 396.49161,309.47693 c -19.914,-9.62541 -39.49676,-23.03302 -58.80854,-40.2641 -46.80596,-41.763 -74.25036,-90.64879 -83.34337,-148.45683 -2.29487,-14.58946 -2.94918,-42.426029 -1.07856,-45.885799 1.06119,-1.962703 3.33661,-3.875953 5.38551,-4.528322 2.04315,-0.650541 10.2019,-1.827739 17.77753,-2.565065 6.74791,-0.656764 17.64496,-0.3167 23.53209,0.734365 11.62818,2.07605 16.48924,4.550057 19.24574,9.794982 l 1.31864,2.509036 0.0242,24.503553 c 0.0246,25.04026 0.41297,32.49016 2.45808,47.15973 6.5313,46.84895 22.89423,86.75736 50.48889,123.14 10.61856,14.00021 25.60173,30.11906 30.38057,32.68334 l 2.66505,1.43003 -1.59239,1.53066 -1.59238,1.53067 -6.86101,-3.31625 z"
     id="path4512"
     inkscape:connector-curvature="0" /><path
     style="opacity:1;fill:#000000;fill-opacity:1;stroke:none;stroke-width:2.26713848;stroke-miterlimit:4;stroke-dasharray:none;stroke-opacity:1"
     d="m 369.29266,215.6499 c -12.15084,-2.8339 -21.49671,-10.10746 -26.531,-20.64813 -2.98395,-6.2477 -3.59104,-9.2226 -3.60029,-17.64256 -0.009,-8.62948 0.57672,-11.32452 3.99555,-18.36953 1.9411,-3.9999 2.91197,-5.30348 6.96701,-9.35458 4.01841,-4.01449 5.39662,-5.04389 9.3673,-6.99649 6.65782,-3.27403 11.16154,-4.33931 18.37767,-4.34694 10.48408,-0.0111 17.99355,2.68737 26.13052,9.38971 3.03608,2.5008 7.12123,8.0226 9.08812,12.28422 2.87913,6.23814 3.45846,9.14486 3.46666,17.39361 0.009,8.5787 -0.56043,11.16764 -4.03882,18.37767 -1.93874,4.01866 -2.88689,5.29558 -6.9296,9.33247 -5.22196,5.21446 -9.65892,7.89623 -16.21362,9.79976 -4.56391,1.3254 -15.86091,1.76469 -20.0795,0.78079 z"
     id="path4514"
     inkscape:connector-curvature="0" /><path
     style="opacity:1;fill:#000000;fill-opacity:1;stroke:none;stroke-width:2.26713848;stroke-miterlimit:4;stroke-dasharray:none;stroke-opacity:1"
     d="m 135.52873,207.44923 c -16.09956,-2.44712 -29.05425,-14.61789 -32.62024,-30.64631 -1.30847,-5.88133 -0.81932,-14.80011 1.11796,-20.3841 4.72237,-13.61172 15.79766,-23.25773 30.00341,-26.13147 5.3898,-1.09033 13.87843,-0.75668 19.12801,0.75185 10.67394,3.06725 19.44551,10.42018 24.27179,20.34624 2.8166,5.79286 3.67506,9.15222 4.01392,15.70764 0.81668,15.79914 -7.35195,29.58918 -21.61754,36.49413 -7.27748,3.52251 -16.68908,5.01846 -24.29731,3.86202 z"
     id="path4516"
     inkscape:connector-curvature="0" /><path
     style="opacity:1;fill:#000000;fill-opacity:1;stroke:none;stroke-width:2.26713848;stroke-miterlimit:4;stroke-dasharray:none;stroke-opacity:1"
     d="m 248.81376,416.20991 c -8.05779,-0.92604 -16.23854,-4.9289 -22.71077,-11.11244 -6.14941,-5.8751 -9.84707,-12.67545 -11.46972,-21.09386 -2.31695,-12.02045 1.99971,-25.41637 11.06686,-34.34383 15.68279,-15.44118 42.03952,-14.72808 57.11815,1.54539 3.62041,3.90727 5.86244,7.62945 7.66669,12.72805 9.55177,26.99215 -13.21054,55.54754 -41.67121,52.27669 z"
     id="path4518"
     inkscape:connector-curvature="0" /></svg>